<svg width="33" height="41" viewBox="0 0 33 41" fill="none" xmlns="http://www.w3.org/2000/svg">
<path d="M4.12122 40.0848C3.02122 40.0848 2.07955 39.6963 1.29622 38.9193C0.512882 38.1423 0.121216 37.2082 0.121216 36.1171V12.311C0.121216 11.2199 0.512882 10.2859 1.29622 9.50888C2.07955 8.73187 3.02122 8.34337 4.12122 8.34337H8.12122C8.12122 6.16115 8.90455 4.29304 10.4712 2.73903C12.0379 1.18502 13.9212 0.40802 16.1212 0.40802C18.3212 0.40802 20.2045 1.18502 21.7712 2.73903C23.3379 4.29304 24.1212 6.16115 24.1212 8.34337H28.1212C29.2212 8.34337 30.1629 8.73187 30.9462 9.50888C31.7295 10.2859 32.1212 11.2199 32.1212 12.311V36.1171C32.1212 37.2082 31.7295 38.1423 30.9462 38.9193C30.1629 39.6963 29.2212 40.0848 28.1212 40.0848H4.12122ZM4.12122 36.1171H28.1212V12.311H24.1212V16.2787C24.1212 16.8408 23.9296 17.312 23.5462 17.6922C23.1629 18.0724 22.6879 18.2626 22.1212 18.2626C21.5546 18.2626 21.0795 18.0724 20.6962 17.6922C20.3129 17.312 20.1212 16.8408 20.1212 16.2787V12.311H12.1212V16.2787C12.1212 16.8408 11.9295 17.312 11.5462 17.6922C11.1629 18.0724 10.6879 18.2626 10.1212 18.2626C9.55455 18.2626 9.07955 18.0724 8.69622 17.6922C8.31288 17.312 8.12122 16.8408 8.12122 16.2787V12.311H4.12122V36.1171ZM12.1212 8.34337H20.1212C20.1212 7.25226 19.7295 6.3182 18.9462 5.5412C18.1629 4.7642 17.2212 4.3757 16.1212 4.3757C15.0212 4.3757 14.0795 4.7642 13.2962 5.5412C12.5129 6.3182 12.1212 7.25226 12.1212 8.34337Z" fill="#D45115"/>
</svg>
