<svg width="17" height="13" viewBox="0 0 17 13" fill="none" xmlns="http://www.w3.org/2000/svg">
<path d="M1.72122 12.9001C1.28122 12.9001 0.904549 12.7434 0.591216 12.4301C0.277882 12.1168 0.121216 11.7401 0.121216 11.3001V1.7001C0.121216 1.2601 0.277882 0.883431 0.591216 0.570098C0.904549 0.256764 1.28122 0.100098 1.72122 0.100098H14.5212C14.9612 0.100098 15.3379 0.256764 15.6512 0.570098C15.9645 0.883431 16.1212 1.2601 16.1212 1.7001V11.3001C16.1212 11.7401 15.9645 12.1168 15.6512 12.4301C15.3379 12.7434 14.9612 12.9001 14.5212 12.9001H1.72122ZM14.5212 3.3001L8.54122 7.0401C8.47455 7.0801 8.40455 7.1101 8.33122 7.1301C8.25788 7.1501 8.18788 7.1601 8.12122 7.1601C8.05455 7.1601 7.98455 7.1501 7.91122 7.1301C7.83788 7.1101 7.76788 7.0801 7.70122 7.0401L1.72122 3.3001V11.3001H14.5212V3.3001ZM8.12122 5.7001L14.5212 1.7001H1.72122L8.12122 5.7001ZM1.72122 3.5001V2.3201V2.3401V2.3301V3.5001Z" fill="#FFFAF1"/>
</svg>
