<?xml version="1.0" encoding="UTF-8"?>
<svg id="Layer_1" data-name="Layer 1" xmlns="http://www.w3.org/2000/svg" viewBox="0 0 1000 1000">
  <g>
    <path d="M316.42,442.41l20.49,42.12c.77,1.53,1.15,2.68,1.15,3.64,0,.77.38,2.3-4.4,2.3h-40.21c-1.53,0-2.68-.57-3.25-1.72l-18.57-36.76c-.77-1.34-5.36-1.34-5.36.19v34.46c0,2.49-1.34,3.83-4.02,3.83h-36.95c-2.68,0-4.02-1.34-4.02-4.02v-125.99c0-2.68,1.34-4.02,4.02-4.02h50.74c40.4,0,60.31,19.34,60.31,46.72,0,18.57-6.7,31.78-19.91,39.25ZM266.25,410.24c0,2.87.57,3.45,2.68,3.45h5.94c10.53,0,14.74-3.25,14.74-8.81,0-6.13-4.02-9.38-14.74-9.38h-5.94c-1.72,0-2.68,1.53-2.68,4.4v10.34Z" style="fill: #d45115;"/>
    <path d="M348.21,490.66c-2.87,0-4.21-1.15-4.21-2.87,0-.38,0-.77.19-1.15l41.93-125.99c.96-2.87,1.15-4.02,4.02-4.02h44.8c2.87,0,3.06,1.15,4.02,4.02l41.93,125.99c.19.57.19.96.19,1.34,0,1.53-1.34,2.68-4.21,2.68h-38.87c-2.87,0-3.06-1.15-4.02-4.02l-3.06-10.15c-.38-.96-.96-1.53-1.92-1.53h-32.55c-1.72,0-1.72.38-2.3,1.72l-3.06,9.96c-.77,2.87-1.15,4.02-4.02,4.02h-38.87ZM405.65,439.53c-.19.57-.19.96-.19,1.34,0,.57.38.96.96.96h11.87c.96,0,1.34-.38,1.34-1.34,0-.19,0-.57-.19-1.15l-5.36-17.23c-.38-1.34-.77-2.11-1.34-2.11,0,0-.77-.57-1.72,2.3l-5.36,17.23Z" style="fill: #d45115;"/>
    <path d="M575.48,356.63c2.87,0,3.25,1.15,4.02,4.02l11.87,44.42c.77,2.87,1.53,4.4,2.49,4.4.77,0,1.53-1.53,2.49-4.4l13.79-44.42c.77-2.87,1.15-4.02,4.02-4.02h38.87c2.87,0,4.21,1.15,4.21,2.87,0,.38,0,.77-.19,1.15l-36.19,125.99c-.77,2.87-1.15,4.02-4.02,4.02h-39.83c-2.87,0-2.87-1.15-3.64-4.02l-10.91-35.23c-1.53-5.17-3.45-5.17-4.98,0l-10.91,35.23c-.77,2.87-1.15,4.02-4.02,4.02h-39.83c-2.87,0-2.87-1.15-3.64-4.02l-36.19-125.99c-.19-.38-.19-.77-.19-1.15,0-1.72,1.34-2.87,4.21-2.87h38.87c2.87,0,3.25,1.15,4.02,4.02l13.79,44.42c.96,2.87,1.72,4.4,2.68,4.4.77,0,1.53-1.53,2.3-4.4l11.87-44.42c.77-2.87,1.15-4.02,4.02-4.02h31.02Z" style="fill: #d45115;"/>
    <path d="M642.89,490.66c-2.87,0-4.21-1.15-4.21-2.87,0-.38,0-.77.19-1.15l41.93-125.99c.96-2.87,1.15-4.02,4.02-4.02h44.8c2.87,0,3.06,1.15,4.02,4.02l41.93,125.99c.19.57.19.96.19,1.34,0,1.53-1.34,2.68-4.21,2.68h-38.87c-2.87,0-3.06-1.15-4.02-4.02l-3.06-10.15c-.38-.96-.96-1.53-1.92-1.53h-32.55c-1.72,0-1.72.38-2.3,1.72l-3.06,9.96c-.77,2.87-1.15,4.02-4.02,4.02h-38.87ZM700.33,439.53c-.19.57-.19.96-.19,1.34,0,.57.38.96.96.96h11.87c.96,0,1.34-.38,1.34-1.34,0-.19,0-.57-.19-1.15l-5.36-17.23c-.38-1.34-.77-2.11-1.34-2.11,0,0-.77-.57-1.72,2.3l-5.36,17.23Z" style="fill: #d45115;"/>
  </g>
  <g>
    <path d="M295.3,552.81c0-2.68-1.34-4.02-4.02-4.02h-65.81c-2.68,0-4.02-1.34-4.02-4.02v-31.21c0-2.68,1.34-4.02,4.02-4.02h144.69c2.68,0,4.02,1.34,4.02,4.02v31.21c0,2.68-1.34,4.02-4.02,4.02h-25.85c-2.68,0-4.02,1.34-4.02,4.02v86.73c0,.77-.19,1.53-.57,2.3-.57.57-.96.96-.96,1.15-2.11.57-1.91.57-2.49.57h-36.95c-.96,0-1.53,0-1.72-.19-2.11-2.11-2.3-2.87-2.3-3.83v-86.73Z" style="fill: #d45115;"/>
    <path d="M426.46,587.85c0,7.66,6.13,13.59,13.79,13.59s13.98-5.94,13.98-13.59v-74.29c0-2.68,1.34-4.02,4.02-4.02h36.95c2.68,0,4.02,1.34,4.02,4.02v87.88c0,25.46-24.7,44.04-58.97,44.04s-58.78-18.76-58.78-44.23v-87.69c0-2.68,1.34-4.02,4.02-4.02h36.95c2.68,0,4.02,1.34,4.02,4.02v74.29Z" style="fill: #d45115;"/>
    <path d="M553.79,587.85c0,7.66,6.13,13.59,13.79,13.59s13.98-5.94,13.98-13.59v-74.29c0-2.68,1.34-4.02,4.02-4.02h36.95c2.68,0,4.02,1.34,4.02,4.02v87.88c0,25.46-24.7,44.04-58.97,44.04s-58.78-18.76-58.78-44.23v-87.69c0-2.68,1.34-4.02,4.02-4.02h36.95c2.68,0,4.02,1.34,4.02,4.02v74.29Z" style="fill: #d45115;"/>
    <path d="M638.23,513.56c0-2.68,1.34-4.02,4.02-4.02h37.14c2.49,0,3.83,1.34,3.83,4.02v86.74c0,2.68,1.34,4.02,4.02,4.02h33.51c2.68,0,4.02,1.34,4.02,4.02v31.21c0,2.68-1.34,4.02-4.02,4.02h-78.5c-.96,0-2.11-.38-3.06-.96-.57-.57-.96-1.72-.96-3.06v-125.99Z" style="fill: #d45115;"/>
    <path d="M736.45,593.15c-2.68,0-4.02-.84-4.02-2.51v-78.6c0-1.67,1.34-2.51,4.02-2.51h36.95c2.68,0,4.02.84,4.02,2.51v78.6c0,1.67-1.34,2.51-4.02,2.51h-36.95Z" style="fill: #d45115;"/>
    <path d="M910.5,637.25c.96,1.34,1.34,2.68,1.34,3.64,0,1.72-1.53,2.49-4.59,2.49h-46.14c-1.34,0-2.49-.57-3.06-1.72l-18.76-28.91c-1.72-2.49-2.87-3.83-3.83-3.83s-1.53,1.72-1.53,5.36v25.08c0,2.68-1.34,4.02-4.02,4.02h-36.95c-2.68,0-4.02-1.34-4.02-4.02v-125.99c0-2.68,1.34-4.02,4.21-4.02h36.76c2.68,0,4.02,1.34,4.02,4.02v23.36c0,3.64.57,5.36,1.53,5.36s2.11-1.15,3.83-3.64l14.93-22.59c4.02-6.13,4.6-6.51,9.38-6.51h43.85c1.15,0,1.72.57,1.72,1.53,0,.19.19,1.53-1.34,3.83l-37.14,56.1c-.58.96-.96,1.72-.96,2.3,0,.19,0,.96.96,2.49l39.83,61.65Z" style="fill: #d45115;"/>
  </g>
  <circle cx="754.93" cy="621.03" r="23.45" style="fill: #d45115;"/>
  <path d="M200.46,455.65l-91.29-96.94c-1.01-1.08-2.71-1.13-3.78-.11l-21.67,20.41c-1.08,1.01-1.13,2.71-.11,3.78l67.71,71.89c.99,1.05.97,2.71-.06,3.73l-70.26,69.81c-1.05,1.04-1.05,2.73-.01,3.78l20.98,21.12c1.04,1.05,2.73,1.05,3.78.01l88.93-88.36,5.67-5.34c1.08-1.01,1.13-2.71.11-3.78Z" style="fill: #d45115;"/>
  <path d="M196.7,542.56l-89.51-88.01c-1.05-1.04-2.75-1.02-3.78.03l-19.51,19.85c-1.04,1.05-1.02,2.75.03,3.78l66.33,65.22c1.03,1.02,1.07,2.67.08,3.73l-65.79,70.4c-1.01,1.08-.95,2.77.13,3.78l20.36,18.97c1.08,1.01,2.77.95,3.78-.13l82.86-88.71,5.06-5.14c1.04-1.05,1.02-2.75-.03-3.78Z" style="fill: #d45115;"/>
</svg>