<svg width="1000" height="1000" viewBox="0 0 1000 1000" fill="none" xmlns="http://www.w3.org/2000/svg">
<path d="M316.42 442.41L336.91 484.53C337.68 486.06 338.06 487.21 338.06 488.17C338.06 488.94 338.44 490.47 333.66 490.47H293.45C291.92 490.47 290.77 489.9 290.2 488.75L271.63 451.99C270.86 450.65 266.27 450.65 266.27 452.18V486.64C266.27 489.13 264.93 490.47 262.25 490.47H225.3C222.62 490.47 221.28 489.13 221.28 486.45V360.46C221.28 357.78 222.62 356.44 225.3 356.44H276.04C316.44 356.44 336.35 375.78 336.35 403.16C336.35 421.73 329.65 434.94 316.44 442.41H316.42ZM266.25 410.24C266.25 413.11 266.82 413.69 268.93 413.69H274.87C285.4 413.69 289.61 410.44 289.61 404.88C289.61 398.75 285.59 395.5 274.87 395.5H268.93C267.21 395.5 266.25 397.03 266.25 399.9V410.24Z" fill="#FFF4DC"/>
<path d="M348.21 490.66C345.34 490.66 344 489.51 344 487.79C344 487.41 344 487.02 344.19 486.64L386.12 360.65C387.08 357.78 387.27 356.63 390.14 356.63H434.94C437.81 356.63 438 357.78 438.96 360.65L480.89 486.64C481.08 487.21 481.08 487.6 481.08 487.98C481.08 489.51 479.74 490.66 476.87 490.66H438C435.13 490.66 434.94 489.51 433.98 486.64L430.92 476.49C430.54 475.53 429.96 474.96 429 474.96H396.45C394.73 474.96 394.73 475.34 394.15 476.68L391.09 486.64C390.32 489.51 389.94 490.66 387.07 490.66H348.2H348.21ZM405.65 439.53C405.46 440.1 405.46 440.49 405.46 440.87C405.46 441.44 405.84 441.83 406.42 441.83H418.29C419.25 441.83 419.63 441.45 419.63 440.49C419.63 440.3 419.63 439.92 419.44 439.34L414.08 422.11C413.7 420.77 413.31 420 412.74 420C412.74 420 411.97 419.43 411.02 422.3L405.66 439.53H405.65Z" fill="#FFF4DC"/>
<path d="M575.48 356.63C578.35 356.63 578.73 357.78 579.5 360.65L591.37 405.07C592.14 407.94 592.9 409.47 593.86 409.47C594.63 409.47 595.39 407.94 596.35 405.07L610.14 360.65C610.91 357.78 611.29 356.63 614.16 356.63H653.03C655.9 356.63 657.24 357.78 657.24 359.5C657.24 359.88 657.24 360.27 657.05 360.65L620.86 486.64C620.09 489.51 619.71 490.66 616.84 490.66H577.01C574.14 490.66 574.14 489.51 573.37 486.64L562.46 451.41C560.93 446.24 559.01 446.24 557.48 451.41L546.57 486.64C545.8 489.51 545.42 490.66 542.55 490.66H502.72C499.85 490.66 499.85 489.51 499.08 486.64L462.89 360.65C462.7 360.27 462.7 359.88 462.7 359.5C462.7 357.78 464.04 356.63 466.91 356.63H505.78C508.65 356.63 509.03 357.78 509.8 360.65L523.59 405.07C524.55 407.94 525.31 409.47 526.27 409.47C527.04 409.47 527.8 407.94 528.57 405.07L540.44 360.65C541.21 357.78 541.59 356.63 544.46 356.63H575.48Z" fill="#FFF4DC"/>
<path d="M642.89 490.66C640.02 490.66 638.68 489.51 638.68 487.79C638.68 487.41 638.68 487.02 638.87 486.64L680.8 360.65C681.76 357.78 681.95 356.63 684.82 356.63H729.62C732.49 356.63 732.68 357.78 733.64 360.65L775.57 486.64C775.76 487.21 775.76 487.6 775.76 487.98C775.76 489.51 774.42 490.66 771.55 490.66H732.68C729.81 490.66 729.62 489.51 728.66 486.64L725.6 476.49C725.22 475.53 724.64 474.96 723.68 474.96H691.13C689.41 474.96 689.41 475.34 688.83 476.68L685.77 486.64C685 489.51 684.62 490.66 681.75 490.66H642.88H642.89ZM700.33 439.53C700.14 440.1 700.14 440.49 700.14 440.87C700.14 441.44 700.52 441.83 701.1 441.83H712.97C713.93 441.83 714.31 441.45 714.31 440.49C714.31 440.3 714.31 439.92 714.12 439.34L708.76 422.11C708.38 420.77 707.99 420 707.42 420C707.42 420 706.65 419.43 705.7 422.3L700.34 439.53H700.33Z" fill="#FFF4DC"/>
<path d="M295.3 552.81C295.3 550.13 293.96 548.79 291.28 548.79H225.47C222.79 548.79 221.45 547.45 221.45 544.77V513.56C221.45 510.88 222.79 509.54 225.47 509.54H370.16C372.84 509.54 374.18 510.88 374.18 513.56V544.77C374.18 547.45 372.84 548.79 370.16 548.79H344.31C341.63 548.79 340.29 550.13 340.29 552.81V639.54C340.29 640.31 340.1 641.07 339.72 641.84C339.15 642.41 338.76 642.8 338.76 642.99C336.65 643.56 336.85 643.56 336.27 643.56H299.32C298.36 643.56 297.79 643.56 297.6 643.37C295.49 641.26 295.3 640.5 295.3 639.54V552.81Z" fill="#FFF4DC"/>
<path d="M426.46 587.85C426.46 595.51 432.59 601.44 440.25 601.44C447.91 601.44 454.23 595.5 454.23 587.85V513.56C454.23 510.88 455.57 509.54 458.25 509.54H495.2C497.88 509.54 499.22 510.88 499.22 513.56V601.44C499.22 626.9 474.52 645.48 440.25 645.48C405.98 645.48 381.47 626.72 381.47 601.25V513.56C381.47 510.88 382.81 509.54 385.49 509.54H422.44C425.12 509.54 426.46 510.88 426.46 513.56V587.85Z" fill="#FFF4DC"/>
<path d="M553.79 587.85C553.79 595.51 559.92 601.44 567.58 601.44C575.24 601.44 581.56 595.5 581.56 587.85V513.56C581.56 510.88 582.9 509.54 585.58 509.54H622.53C625.21 509.54 626.55 510.88 626.55 513.56V601.44C626.55 626.9 601.85 645.48 567.58 645.48C533.31 645.48 508.8 626.72 508.8 601.25V513.56C508.8 510.88 510.14 509.54 512.82 509.54H549.77C552.45 509.54 553.79 510.88 553.79 513.56V587.85Z" fill="#FFF4DC"/>
<path d="M638.23 513.56C638.23 510.88 639.57 509.54 642.25 509.54H679.39C681.88 509.54 683.22 510.88 683.22 513.56V600.3C683.22 602.98 684.56 604.32 687.24 604.32H720.75C723.43 604.32 724.77 605.66 724.77 608.34V639.55C724.77 642.23 723.43 643.57 720.75 643.57H642.25C641.29 643.57 640.14 643.19 639.19 642.61C638.62 642.04 638.23 640.89 638.23 639.55V513.56Z" fill="#FFF4DC"/>
<path d="M736.45 593.15C733.77 593.15 732.43 592.31 732.43 590.64V512.04C732.43 510.37 733.77 509.53 736.45 509.53H773.4C776.08 509.53 777.42 510.37 777.42 512.04V590.64C777.42 592.31 776.08 593.15 773.4 593.15H736.45Z" fill="#FFF4DC"/>
<path d="M910.5 637.25C911.46 638.59 911.84 639.93 911.84 640.89C911.84 642.61 910.31 643.38 907.25 643.38H861.11C859.77 643.38 858.62 642.81 858.05 641.66L839.29 612.75C837.57 610.26 836.42 608.92 835.46 608.92C834.5 608.92 833.93 610.64 833.93 614.28V639.36C833.93 642.04 832.59 643.38 829.91 643.38H792.96C790.28 643.38 788.94 642.04 788.94 639.36V513.37C788.94 510.69 790.28 509.35 793.15 509.35H829.91C832.59 509.35 833.93 510.69 833.93 513.37V536.73C833.93 540.37 834.5 542.09 835.46 542.09C836.42 542.09 837.57 540.94 839.29 538.45L854.22 515.86C858.24 509.73 858.82 509.35 863.6 509.35H907.45C908.6 509.35 909.17 509.92 909.17 510.88C909.17 511.07 909.36 512.41 907.83 514.71L870.69 570.81C870.11 571.77 869.73 572.53 869.73 573.11C869.73 573.3 869.73 574.07 870.69 575.6L910.52 637.25H910.5Z" fill="#FFF4DC"/>
<path d="M754.93 644.48C767.881 644.48 778.38 633.981 778.38 621.03C778.38 608.079 767.881 597.58 754.93 597.58C741.979 597.58 731.48 608.079 731.48 621.03C731.48 633.981 741.979 644.48 754.93 644.48Z" fill="#FFF4DC"/>
<path d="M200.46 455.65L109.17 358.71C108.16 357.63 106.46 357.58 105.39 358.6L83.7199 379.01C82.6399 380.02 82.5899 381.72 83.6099 382.79L151.32 454.68C152.31 455.73 152.29 457.39 151.26 458.41L80.9999 528.22C79.9499 529.26 79.9499 530.95 80.9899 532L101.97 553.12C103.01 554.17 104.7 554.17 105.75 553.13L194.68 464.77L200.35 459.43C201.43 458.42 201.48 456.72 200.46 455.65Z" fill="#FFF4DC"/>
<path d="M196.7 542.56L107.19 454.55C106.14 453.51 104.44 453.53 103.41 454.58L83.9 474.43C82.86 475.48 82.88 477.18 83.93 478.21L150.26 543.43C151.29 544.45 151.33 546.1 150.34 547.16L84.55 617.56C83.54 618.64 83.6 620.33 84.68 621.34L105.04 640.31C106.12 641.32 107.81 641.26 108.82 640.18L191.68 551.47L196.74 546.33C197.78 545.28 197.76 543.58 196.71 542.55L196.7 542.56Z" fill="#FFF4DC"/>
</svg>
