<svg width="78" height="27" viewBox="0 0 78 27" fill="none" xmlns="http://www.w3.org/2000/svg">
<path d="M15.2 1.49268H11.6C10.0087 1.49268 8.48252 2.12481 7.3574 3.25004C6.23214 4.37526 5.6 5.90138 5.6 7.49268V11.0927H2V15.8927H5.6V25.4927H10.4V15.8927H14L15.2 11.0927H10.4V7.49268C10.4 7.17441 10.5265 6.86919 10.7515 6.64414C10.9765 6.41911 11.2818 6.29268 11.6 6.29268H15.2V1.49268Z" stroke="white" stroke-width="2.5" stroke-linecap="round" stroke-linejoin="round"/>
<path d="M55.2 18.8258C58.1455 18.8258 60.5334 16.438 60.5334 13.4925C60.5334 10.547 58.1455 8.15918 55.2 8.15918C52.2545 8.15918 49.8667 10.547 49.8667 13.4925C49.8667 16.438 52.2545 18.8258 55.2 18.8258Z" stroke="white" stroke-width="2.5" stroke-linecap="round" stroke-linejoin="round"/>
<path d="M43.2 18.826V8.15934C43.2 4.47745 46.1848 1.49268 49.8667 1.49268H60.5333C64.2152 1.49268 67.2 4.47745 67.2 8.15934V18.826C67.2 22.5079 64.2152 25.4927 60.5333 25.4927H49.8667C46.1848 25.4927 43.2 22.5079 43.2 18.826Z" stroke="white" stroke-width="2.5"/>
<path d="M62.5334 6.17253L62.5467 6.15771" stroke="white" stroke-width="2.5" stroke-linecap="round" stroke-linejoin="round"/>
</svg>
