<?xml version="1.0" encoding="UTF-8"?>
<svg id="line" xmlns="http://www.w3.org/2000/svg" viewBox="0 0 347.66 440.97">
  <path d="M151.46,152.91c1.69,0,3.38-.64,4.66-1.93,1.24-1.24,1.93-2.9,1.93-4.66s-.69-3.42-1.93-4.67-2.9-1.93-4.66-1.93-3.42.69-4.66,1.93c-1.24,1.24-1.93,2.9-1.93,4.66s.69,3.42,1.93,4.67c1.29,1.28,2.97,1.93,4.66,1.93ZM149.27,144.13c.58-.58,1.36-.91,2.19-.91s1.61.32,2.19.91.9,1.36.9,2.19-.32,1.61-.9,2.19c-1.21,1.21-3.17,1.21-4.38,0-.58-.58-.9-1.36-.9-2.19s.32-1.61.9-2.19Z" style="fill: #fff8f8;"/>
  <path d="M153.92,303.21c-.92,0-1.85.11-2.76.32-.52.12-1.01.27-1.46.44-4.73,1.75-7.91,6.31-7.91,11.35v23.51h24.25v-23.51c0-6.68-5.43-12.11-12.11-12.11ZM162.54,335.34h-17.25v-20.01c0-3.58,2.26-6.83,5.63-8.07.32-.12.67-.22,1.04-.31.64-.15,1.32-.23,1.96-.23,4.75,0,8.61,3.86,8.61,8.61v20.01Z" style="fill: #fff8f8;"/>
  <path d="M153.92,229.79c-.92,0-1.84.11-2.76.32-.52.12-1.01.27-1.46.44-4.73,1.75-7.91,6.31-7.91,11.35v23.51h24.25v-23.51c0-6.68-5.43-12.11-12.11-12.11ZM162.54,261.91h-17.25v-20.01c0-3.58,2.26-6.83,5.63-8.07.32-.12.67-.22,1.04-.31.65-.15,1.33-.23,1.97-.23,4.75,0,8.61,3.86,8.61,8.61v20.01Z" style="fill: #fff8f8;"/>
  <path d="M303.34,245.17l-79.16-66.39h1.04v-5.08l-.05-.41c-3.72-15.39-12.38-29.44-24.45-39.78l102.61-86.06L255.97,0l-92.42,104.41-1.09,1.23,13.38,13.41-.21.22c-4.44-1.49-9.01-2.58-13.68-3.22-3.47-.5-7.01-.75-10.51-.75-7.6,0-15,1.12-22.13,3.3l-.69-.7,12.23-12.26L47.36,0,0,47.46l102.38,85.87c-12.2,10.39-20.92,24.5-24.63,39.97l-.04,6.7L0,245.17l47.36,47.46,20.24-22.86-17.05,96.3-.03,7.76h11.48v51.21h-8.71v15.85h193.71v-15.85h-7.5v-51.21h12.88v-7.61l-17.26-97.14,20.84,23.55,47.36-47.46ZM167.27,105.5L256.13,5.11l42.04,42.12-102.91,86.31-27.99-28.04ZM176.58,123.31c2.06.76,4.1,1.61,6.09,2.57l12.37,12.4,2.96-2.48c11.69,9.85,20.1,23.33,23.72,38.12v2.81l-26.68-22.38-15.47,15.5-15.93-16.25-.17.17c1.38-2.22,2.13-4.77,2.13-7.45,0-3.2-1.06-6.22-3-8.69l13.98-14.31ZM153.35,389.94h-1.56c-9.66,0-17.52,7.86-17.52,17.52v17.59h-22.4v-51.21h77.17v51.21h-18.18v-17.59c0-9.66-7.86-17.52-17.52-17.52ZM167.37,407.46v17.59h-29.6v-17.59c0-7.73,6.29-14.02,14.02-14.02h1.56c7.73,0,14.02,6.29,14.02,14.02ZM112.74,370.33l17.05-170.83,9.99-11.28,1.09-1.23-6.44-6.46h34.49l-6.44,6.46,9.83,11.11,17.87,172.23h-77.43ZM130.93,177.03l-3.15-3.16,15.06-16.37c2.46,1.9,5.45,2.94,8.62,2.94,3.76,0,7.3-1.46,9.96-4.1l15.67,15.98-4.69,4.7h-41.47ZM143.94,138.79c2.01-2,4.68-3.11,7.52-3.11h0c2.85,0,5.52,1.1,7.52,3.11,4.15,4.15,4.15,10.9,0,15.05-2.01,2.01-4.68,3.11-7.53,3.11s-5.52-1.1-7.53-3.11c-4.15-4.15-4.15-10.9,0-15.05ZM151.45,118.8c3.34,0,6.71.24,10.02.71,3.89.54,7.71,1.39,11.44,2.55l-12.78,13.09c-2.47-1.92-5.48-2.97-8.66-2.97h0c-2.5,0-4.89.66-7,1.86l-12.37-12.62c6.26-1.74,12.73-2.62,19.37-2.62ZM5.17,47.23L47.21,5.11l88.86,100.39-27.99,28.04L5.17,47.23ZM81.21,173.91c3.61-14.87,12.08-28.4,23.9-38.3l3.19,2.67,12.78-12.8c2.38-1.1,4.79-2.07,7.25-2.9l13.32,13.58c-.06.05-.12.1-.17.16-2.67,2.67-4.14,6.22-4.14,10,0,3.21,1.07,6.25,3.02,8.73l-15.05,16.35-17.01-17.04-27.05,22.68h-.04v-3.12ZM47.21,287.52L5.17,245.4l102.91-86.31,27.99,28.04-88.86,100.39ZM54.03,370.33v-3.8l18.02-101.78,53.79-60.77-16.6,166.35h-55.2ZM101.3,437.4h-44.5v-8.85h44.5v8.85ZM101.3,425.04h-35.79v-51.21h42.86v51.21h-7.07ZM196.3,437.4h-91.5v-8.85h91.5v8.85ZM196.3,425.04h-3.75v-51.21h43.47v51.21h-39.71ZM243.51,428.54v8.85h-43.71v-8.85h43.71ZM248.9,366.53v3.8h-55.2l-17.41-167.73,54.4,61.46,18.21,102.47ZM233.96,262.48v-.07s-.06,0-.06,0l-66.63-75.28,27.99-28.04,102.91,86.31-42.04,42.12-22.17-25.04Z" style="fill: #fff8f8;"/>
  <path d="M269.38,268.29h0s2.73-2.73,2.73-2.73l19.07-19.05-26.46-22.96h0l-3.58-3.11-28.79-24.98-6.3-5.47h0s-29.83-25.88-29.83-25.88l-8.28,8.27h0s-1.95,1.95-1.95,1.95l-13.37,13.35,26.57,29.17h0s6.9,7.57,6.9,7.57h0l23.73,26.05,3.9,4.29h0s23.44,25.73,23.44,25.73l12.21-12.2ZM262.26,226.05l23.79,20.64-11.91,11.89-22.13-22.13,10.25-10.4ZM254.6,219.41l-9.82,9.82-20.21-20.21-.46-2.61,7.21-7.21,23.29,20.21ZM223.57,192.48l-1.64,1.64-.64-3.61,2.28,1.98ZM217.09,186.86l1.82,10.28-3.11,3.11-19.71-19.71h13.72l7.28,6.32ZM196.39,168.89l9.38,8.14h-13.19l-2.17-2.17,5.98-5.97ZM177.46,187.79l5.71-5.71,25.39,25.39-6.89,6.89-24.21-26.58ZM208.57,221.94l7.23-7.23,7.56,7.56,3.5,19.74-18.29-20.07ZM227.68,226.59l9.87,9.87-6.9,6.9-2.97-16.77ZM231.83,247.47l-.16-.18,10.83-10.83-26.7-26.7-9.59,9.59-2.18-2.39,9.48-9.48-27.86-27.86,2-2,.28-.28,27.86,27.86,10.42-10.42,2.45,2.12-10.58,10.58,26.7,26.7,12.47-12.47,2.36,2.04-12.54,12.72,24.59,24.59-1.24,1.24-1.05,1.05-24.6-24.6-10.94,10.94-2.02-2.21ZM244.78,243.69l22.12,22.12-9.62,9.61-21.08-23.14,8.58-8.58Z" style="fill: #fff8f8;"/>
  <path d="M117.37,174.35l-1.96-1.96h0s-8.28-8.27-8.28-8.27l-29.83,25.88h0l-7.75,6.72h0l-27.05,23.47-3.88,3.36h0l-26.46,22.96,19.05,19.02,2.75,2.75h0s12.21,12.2,12.21,12.2l23.44-25.73h0s4.79-5.26,4.79-5.26l22.84-25.07h0s1.74-1.91,1.74-1.91l30.61-33.6,1.12-1.24-13.35-13.33ZM106.95,168.89l5.98,5.97-2.17,2.17h-13.19l9.38-8.14ZM85.76,187.28l7.77-6.75h13.72l-19.71,19.71-3.46-3.46,1.68-9.5ZM81.56,190.93l-.5,2.84-1.29-1.29,1.79-1.55ZM72.02,199.2l6.86,6.85-.61,3.47-19.71,19.71-9.82-9.82,23.29-20.21ZM29.2,258.59l-11.91-11.89,23.79-20.64,10.25,10.4-22.13,22.13ZM46.05,275.42l-9.62-9.61,22.12-22.12,8.58,8.58-21.08,23.14ZM72.34,243.01l-6.55-6.55,9.37-9.37-2.82,15.91ZM75.97,242.58l3.51-19.81,8.06-8.06,7.23,7.23-18.8,20.64ZM97.13,219.35l-9.59-9.59-26.7,26.7,10.75,10.75-.04.21-2.06,2.26-10.94-10.94-24.6,24.6-1.09-1.08-1.2-1.2,24.59-24.59-12.54-12.72,2.36-2.04,12.47,12.47,26.7-26.7-10.58-10.58,2.45-2.12,10.42,10.42,27.86-27.86.24.24,2.05,2.05-27.86,27.86,9.48,9.48-2.18,2.39ZM101.66,214.37l-6.89-6.89,25.39-25.39,5.71,5.71-24.21,26.58Z" style="fill: #fff8f8;"/>
  <path d="M226.05,102.63h0s5.91-5.13,5.91-5.13l29.46-25.57,3.3-2.86h0l26.46-22.96-19.06-19.04-2.74-2.74h0s-12.21-12.2-12.21-12.2l-23.44,25.73h0s-2.88,3.16-2.88,3.16l-57.09,62.67-1.12,1.24,13.31,13.3,2,2h0s8.28,8.27,8.28,8.27l29.83-25.89ZM231.32,93.43l-8.28-8.28,21.75-21.75,9.82,9.82-23.29,20.21ZM274.14,34.04l11.91,11.89-23.79,20.64-10.25-10.4,22.13-22.13ZM257.29,17.21l9.62,9.61-22.12,22.12-8.58-8.58,21.08-23.14ZM229.31,47.92l8.24,8.24-21.75,21.75-7.23-7.23,20.73-22.76ZM177.46,104.84l24.21-26.58,6.89,6.89-25.39,25.39-5.71-5.71ZM187.94,115.3l-.28-.28-2-2,27.86-27.86-9.48-9.48,2.18-2.39,9.59,9.59,26.7-26.7-10.83-10.83.43-.47,1.75-1.92,10.94,10.94,24.6-24.6,1.19,1.19,1.09,1.09-24.59,24.59,12.54,12.72-2.36,2.04-12.47-12.47-26.7,26.7,10.58,10.58-2.45,2.12-10.42-10.42-27.86,27.86ZM215.8,92.38l7.77,7.77-27.18,23.59-5.98-5.97,25.39-25.39Z" style="fill: #fff8f8;"/>
  <path d="M115.4,120.25l2.02-2.02,13.29-13.28-29.42-32.29-4.05-4.45h0s-20.91-22.95-20.91-22.95l-6.72-7.38h0s-23.44-25.73-23.44-25.73l-12.21,12.2h0s-2.76,2.76-2.76,2.76l-19.04,19.02,26.46,22.96h0l3.61,3.14,27.31,23.7h0s7.75,6.72,7.75,6.72l29.83,25.88,8.28-8.27h0ZM101.66,78.26l24.21,26.58-5.71,5.71-25.39-25.39,6.89-6.89ZM94.77,70.69l-7.23,7.23-21.75-21.75,8.25-8.24,20.74,22.76ZM46.05,17.21l21.08,23.14-8.58,8.58-22.12-22.12,9.62-9.61ZM41.08,66.58l-23.79-20.64,11.91-11.89,22.13,22.13-10.25,10.4ZM48.73,73.22l9.82-9.82,21.75,21.75-8.28,8.28-23.29-20.21ZM77.12,97.85l-2.45-2.12,10.58-10.58-26.7-26.7-12.47,12.47-2.36-2.04,12.54-12.72-24.59-24.59,1.06-1.06,1.23-1.23,24.6,24.6,10.94-10.94,2.18,2.39-10.83,10.83,26.7,26.7,9.59-9.59,2.18,2.39-9.48,9.48,27.86,27.86-2.05,2.05-.24.24-27.86-27.86-10.42,10.42ZM106.95,123.74l-27.18-23.59,7.77-7.77,25.39,25.39-5.98,5.97Z" style="fill: #fff8f8;"/>
  <path d="M342.05,407.56c-4.26,1.62-8.38-.08-13.15-2.05-6.33-2.61-13.5-5.58-22.5-1.05-1.24.62-2.72.44-3.77-.47-1.05-.9-1.45-2.35-1.03-3.7,5.58-17.73,2.98-32.86-.09-38.63-.3-.63-.67-1.22-1.1-1.72-1.49-1.79-3.87-2.91-6.22-2.91-1.71,0-3.47.67-4.96,1.85h0s0,0,0,0c-.28.22-.55.45-.81.71h0s-.02.02-.02.02c-2.7,2.25-3.88,3.63-4.43,4.46-2.12.54-5.75,1.56-6.88,2.46-1.11.88-1.52,2.06-1.11,3.15.33.87,1.25,1.88,3.77,1.88l9.3-.19c.95.78,2.05,1.33,3.23,1.62,1.64,3.45,3.8,11.7-2.57,25.73-8.8,19.36-2.72,27.88,3.92,31.62,2.56,1.44,6.55,2.82,11.14,3.58l-1.4,5.9,3.4.81,1.49-6.28c1.2.1,2.41.16,3.65.16.78,0,1.57-.03,2.36-.07l-.41,6.3,3.49.22.44-6.91c1.6-.26,3.19-.63,4.73-1.14,6.61-2.21,11.38-6.52,14.19-12.8l10.92-14.69-5.61,2.14ZM322.81,412.71l-1.93,2.92c2.67,1.76,5.68,2.61,8.66,2.61,1.62,0,3.24-.25,4.78-.74l-.45.6c-3.79,3.26-8.6,4.9-13.6,4.58-5.08-.31-9.75-2.59-13.12-6.42l-2.62,2.32c4,4.52,9.51,7.22,15.53,7.59.47.03.95.04,1.42.04,2.72,0,5.38-.49,7.87-1.42-2.15,2.14-4.78,3.76-7.92,4.81-9.42,3.15-21.12.49-26.07-2.3-7.81-4.4-8.63-13.53-2.45-27.13,7.53-16.57,3.96-26.22,2.08-29.6l-.44-.78-.89-.1c-.87-.1-1.69-.45-2.38-1.01l-11.21.23c1.24-.48,3.55-1.15,5.51-1.63l.95-.2.3-.94c.17-.4,1.33-1.75,3.86-3.86l.17-.27.06.06c.98-.98,2.18-1.54,3.29-1.54,1.49,0,2.84.82,3.53,1.65.24.29.45.62.66,1.06,2.83,5.32,5.13,19.3-.12,36.01-.85,2.69-.03,5.59,2.08,7.41,2.13,1.83,5.12,2.2,7.62.94,7.56-3.81,13.68-1.28,19.59,1.16,3.27,1.35,6.65,2.71,10.1,2.92-4.05,3.57-10.14,4.16-14.86,1.05Z" style="fill: #fff8f8;"/>
  <path d="M292.96,363.34l-.5,1.3h2.69c-.64-1.3-2.2-1.3-2.2-1.3Z" style="fill: #fff8f8;"/>
</svg>